<svg width="28" height="29" viewBox="0 0 28 29" fill="none" xmlns="http://www.w3.org/2000/svg">
<path id="Vector" d="M14.1294 7.19417C16.8781 7.19417 19.1928 8.88584 19.1928 11.8342H8.87306C9.35529 8.83751 11.4289 7.19417 14.1294 7.19417ZM27.0049 18.9875H18.2283C17.5532 20.4375 16.2512 21.5975 13.9365 21.5975C11.2842 21.5975 9.11419 19.9542 8.82486 16.4258H27.4871C27.5835 15.6042 27.6318 14.7825 27.6318 14.0092C27.6318 5.79251 22.0861 0.57251 14.2258 0.57251C6.22082 0.57251 0.626953 5.88918 0.626953 14.4442C0.626953 22.9992 6.31727 28.3158 14.2258 28.3158C20.9288 28.3158 25.7029 24.2558 27.0049 18.9875Z" fill="#222222"/>
</svg>
