<svg width="24" height="29" viewBox="0 0 24 29" fill="none" xmlns="http://www.w3.org/2000/svg">
<path id="Vector" d="M23.7038 20.0992C23.5591 10.0458 8.99579 13.0908 8.99579 8.78918C8.99579 7.48418 10.0567 6.71084 11.9856 6.71084C14.3003 6.71084 15.6988 7.91918 15.9399 9.75584H23.5591C23.0286 4.43918 19.1708 0.57251 12.2267 0.57251C5.18617 0.57251 1.28013 4.34251 1.28013 8.93418C1.28013 18.8425 15.9399 15.7008 15.9399 20.0508C15.9399 21.2592 14.8308 22.2258 12.709 22.2258C10.4425 22.2258 8.75467 20.9692 8.56178 19.0842H0.412109C0.797892 24.3042 5.62018 28.3158 12.8054 28.3158C19.5566 28.3158 23.7038 24.7875 23.7038 20.0992Z" fill="#222222"/>
</svg>
